<?xml version="1.0" encoding="UTF-8" standalone="no"?>
<svg
   xmlns:dc="http://purl.org/dc/elements/1.1/"
   xmlns:cc="http://creativecommons.org/ns#"
   xmlns:rdf="http://www.w3.org/1999/02/22-rdf-syntax-ns#"
   xmlns:svg="http://www.w3.org/2000/svg"
   xmlns="http://www.w3.org/2000/svg"
   xmlns:sodipodi="http://sodipodi.sourceforge.net/DTD/sodipodi-0.dtd"
   xmlns:inkscape="http://www.inkscape.org/namespaces/inkscape"
   width="256"
   height="256"
   viewBox="0 0 72.248892 72.248892"
   id="svg4295"
   version="1.1"
   inkscape:version="0.91 r13725"
   sodipodi:docname="dockwidgets_top.svg">
  <metadata
     id="metadata4325">
    <rdf:RDF>
      <cc:Work
         rdf:about="">
        <dc:format>image/svg+xml</dc:format>
        <dc:type
           rdf:resource="http://purl.org/dc/dcmitype/StillImage" />
        <dc:title></dc:title>
      </cc:Work>
    </rdf:RDF>
  </metadata>
  <defs
     id="defs4323" />
  <sodipodi:namedview
     pagecolor="#ffffff"
     bordercolor="#666666"
     borderopacity="1"
     objecttolerance="10"
     gridtolerance="10"
     guidetolerance="10"
     inkscape:pageopacity="0"
     inkscape:pageshadow="2"
     inkscape:window-width="1920"
     inkscape:window-height="1176"
     id="namedview4321"
     showgrid="true"
     units="px"
     inkscape:snap-grids="true"
     inkscape:zoom="2.6867386"
     inkscape:cx="128"
     inkscape:cy="128"
     inkscape:window-x="-4"
     inkscape:window-y="-4"
     inkscape:window-maximized="1"
     inkscape:current-layer="svg4295"
     showguides="false">
    <inkscape:grid
       type="xygrid"
       id="grid4867" />
  </sodipodi:namedview>
  <path
     style="fill:#00ff00;fill-opacity:1;fill-rule:evenodd;stroke:#130000;stroke-width:0;stroke-linecap:round;stroke-miterlimit:4;stroke-dasharray:none;stroke-opacity:1"
     d="m 42.096594,79.091997 c 0,-1.934246 2.07543,-19.331965 2.334926,-19.572993 0.207345,-0.192589 21.775524,-2.451535 29.674142,-3.107925 20.748508,-1.72424 33.546218,-2.248251 54.899278,-2.247888 21.9247,3.72e-4 36.00764,0.620499 55.08537,2.42562 5.35738,0.506911 24.1079,2.75113 24.25081,2.902539 0.0319,0.03374 0.32586,3.662373 0.65335,8.06362 0.32749,4.401246 0.69161,9.049075 0.80916,10.328507 l 0.21372,2.32624 -83.96038,0 -83.960376,0 0,-1.11772 z"
     id="path4231"
     inkscape:connector-curvature="0"
     transform="scale(0.28222224,0.28222224)" />
  <path
     style="fill:none;stroke:#000000;stroke-width:2.25777793;stroke-miterlimit:4;stroke-dasharray:none"
     inkscape:connector-curvature="0"
     id="path4313"
     d="m 58.994844,16.621053 c -15.701065,-2.269321 -31.227988,-1.926522 -46.64933,0 -1.566417,10.944846 -1.522453,21.761172 0,32.425948 15.414997,2.291262 30.954301,2.469298 46.64933,0 1.339928,-10.808649 0.880417,-21.617299 0,-32.425948 z"
     sodipodi:nodetypes="ccccc" />
  <path
     style="fill:#000000;fill-opacity:1;fill-rule:evenodd;stroke:#000000;stroke-width:0.28222215px;stroke-linecap:butt;stroke-linejoin:miter;stroke-opacity:1"
     d="m 41.395942,52.493337 -9.329011,0 0,4.233333 -13.060613,0 0,1.411111 33.584435,0 0,-1.411111 -11.194811,0 z"
     id="path4233"
     inkscape:connector-curvature="0" />
</svg>
