<?xml version="1.0" encoding="UTF-8" standalone="no"?>
<svg
   xmlns:dc="http://purl.org/dc/elements/1.1/"
   xmlns:cc="http://creativecommons.org/ns#"
   xmlns:rdf="http://www.w3.org/1999/02/22-rdf-syntax-ns#"
   xmlns:svg="http://www.w3.org/2000/svg"
   xmlns="http://www.w3.org/2000/svg"
   xmlns:sodipodi="http://sodipodi.sourceforge.net/DTD/sodipodi-0.dtd"
   xmlns:inkscape="http://www.inkscape.org/namespaces/inkscape"
   width="256"
   height="256"
   viewBox="0 0 72.248892 72.248892"
   id="svg4295"
   version="1.1"
   inkscape:version="0.91 r13725"
   sodipodi:docname="dockwidgets_right.svg">
  <metadata
     id="metadata4325">
    <rdf:RDF>
      <cc:Work
         rdf:about="">
        <dc:format>image/svg+xml</dc:format>
        <dc:type
           rdf:resource="http://purl.org/dc/dcmitype/StillImage" />
        <dc:title></dc:title>
      </cc:Work>
    </rdf:RDF>
  </metadata>
  <defs
     id="defs4323" />
  <sodipodi:namedview
     pagecolor="#ffffff"
     bordercolor="#666666"
     borderopacity="1"
     objecttolerance="10"
     gridtolerance="10"
     guidetolerance="10"
     inkscape:pageopacity="0"
     inkscape:pageshadow="2"
     inkscape:window-width="1920"
     inkscape:window-height="1176"
     id="namedview4321"
     showgrid="true"
     units="px"
     inkscape:snap-grids="true"
     inkscape:zoom="2.6867386"
     inkscape:cx="39.416764"
     inkscape:cy="127.6278"
     inkscape:window-x="-4"
     inkscape:window-y="-4"
     inkscape:window-maximized="1"
     inkscape:current-layer="svg4295"
     showguides="false">
    <inkscape:grid
       type="xygrid"
       id="grid4867" />
  </sodipodi:namedview>
  <path
     style="fill:#00ff00;fill-opacity:1;fill-rule:evenodd;stroke:#130000;stroke-width:0;stroke-linecap:round;stroke-miterlimit:4;stroke-dasharray:none;stroke-opacity:1"
     d="m 51.790389,49.827479 c 2.715903,-0.281265 6.66325,-0.730303 6.69449,-0.761542 0.01988,-0.01987 0.148822,-0.928543 0.286539,-2.019253 1.074187,-8.507482 1.147973,-17.723728 0.210144,-26.247965 -0.176894,-1.60785 -0.458862,-3.757126 -0.496954,-3.787982 -0.08665,-0.07019 -7.402784,-0.99146 -7.873556,-0.99146 -0.04465,0 -0.08118,7.633977 -0.08118,16.964395 0,16.091891 0.0095,16.96367 0.183825,16.950332 0.101103,-0.0077 0.585613,-0.05567 1.076687,-0.106525 z"
     id="path4241"
     inkscape:connector-curvature="0" />
  <path
     style="fill:none;stroke:#000000;stroke-width:2.25777793;stroke-miterlimit:4;stroke-dasharray:none"
     inkscape:connector-curvature="0"
     id="path4313"
     d="m 12.029128,49.256616 c 15.701065,2.269321 31.227988,1.926522 46.64933,0 1.566417,-10.944846 1.522453,-21.761172 0,-32.425948 -15.414997,-2.291262 -30.954301,-2.469298 -46.64933,0 -1.339928,10.808649 -0.880417,21.617299 0,32.425948 z"
     sodipodi:nodetypes="ccccc" />
  <path
     style="fill:#000000;fill-opacity:1;fill-rule:evenodd;stroke:#000000;stroke-width:0.28222215px;stroke-linecap:butt;stroke-linejoin:miter;stroke-opacity:1"
     d="m 41.395942,52.493337 -9.329011,0 0,4.233333 -13.060613,0 0,1.411111 33.584435,0 0,-1.411111 -11.194811,0 z"
     id="path4233"
     inkscape:connector-curvature="0" />
</svg>
