<?xml version="1.0" encoding="UTF-8" standalone="no"?>
<svg
   xmlns:dc="http://purl.org/dc/elements/1.1/"
   xmlns:cc="http://creativecommons.org/ns#"
   xmlns:rdf="http://www.w3.org/1999/02/22-rdf-syntax-ns#"
   xmlns:svg="http://www.w3.org/2000/svg"
   xmlns="http://www.w3.org/2000/svg"
   xmlns:sodipodi="http://sodipodi.sourceforge.net/DTD/sodipodi-0.dtd"
   xmlns:inkscape="http://www.inkscape.org/namespaces/inkscape"
   width="256"
   height="256"
   viewBox="0 0 72.248892 72.248892"
   id="svg4295"
   version="1.1"
   inkscape:version="0.91 r13725"
   sodipodi:docname="dockwidgets_left.svg">
  <metadata
     id="metadata4325">
    <rdf:RDF>
      <cc:Work
         rdf:about="">
        <dc:format>image/svg+xml</dc:format>
        <dc:type
           rdf:resource="http://purl.org/dc/dcmitype/StillImage" />
        <dc:title />
      </cc:Work>
    </rdf:RDF>
  </metadata>
  <defs
     id="defs4323" />
  <sodipodi:namedview
     pagecolor="#ffffff"
     bordercolor="#666666"
     borderopacity="1"
     objecttolerance="10"
     gridtolerance="10"
     guidetolerance="10"
     inkscape:pageopacity="0"
     inkscape:pageshadow="2"
     inkscape:window-width="1920"
     inkscape:window-height="1176"
     id="namedview4321"
     showgrid="true"
     units="px"
     inkscape:snap-grids="true"
     inkscape:zoom="2.6867386"
     inkscape:cx="39.416764"
     inkscape:cy="127.6278"
     inkscape:window-x="-4"
     inkscape:window-y="-4"
     inkscape:window-maximized="1"
     inkscape:current-layer="svg4295"
     showguides="false">
    <inkscape:grid
       type="xygrid"
       id="grid4867" />
  </sodipodi:namedview>
  <path
     style="fill:#00ff00;fill-opacity:1;fill-rule:evenodd;stroke:#130000;stroke-width:0;stroke-linecap:round;stroke-miterlimit:4;stroke-dasharray:none;stroke-opacity:1"
     d="m 68.150486,176.55405 c -9.623277,-0.99661 -23.609937,-2.58769 -23.720631,-2.69838 -0.07044,-0.0704 -0.527322,-3.29011 -1.015295,-7.15483 -3.806175,-30.14462 -4.067623,-62.80061 -0.744607,-93.004596 0.62679,-5.697107 1.625891,-13.31265 1.760861,-13.421982 0.307037,-0.248713 26.230338,-3.513048 27.898425,-3.513048 0.158196,0 0.287629,27.049524 0.287629,60.110056 0,57.01851 -0.0335,60.10749 -0.651347,60.06023 -0.358241,-0.0274 -2.075007,-0.19725 -3.815035,-0.37745 z"
     id="path4241"
     inkscape:connector-curvature="0"
     transform="scale(0.28222224,0.28222224)" />
  <path
     style="fill:none;stroke:#000000;stroke-width:2.25777793;stroke-miterlimit:4;stroke-dasharray:none"
     inkscape:connector-curvature="0"
     id="path4313"
     d="m 58.994844,49.256616 c -15.701065,2.269321 -31.227988,1.926522 -46.64933,0 -1.566417,-10.944846 -1.522453,-21.761172 0,-32.425948 15.414997,-2.291262 30.954301,-2.469298 46.64933,0 1.339928,10.808649 0.880417,21.617299 0,32.425948 z"
     sodipodi:nodetypes="ccccc" />
  <path
     style="fill:#000000;fill-opacity:1;fill-rule:evenodd;stroke:#000000;stroke-width:0.28222215px;stroke-linecap:butt;stroke-linejoin:miter;stroke-opacity:1"
     d="m 41.395942,52.493337 -9.329011,0 0,4.233333 -13.060613,0 0,1.411111 33.584435,0 0,-1.411111 -11.194811,0 z"
     id="path4233"
     inkscape:connector-curvature="0" />
</svg>
