<?xml version="1.0" encoding="UTF-8" standalone="no"?>
<svg
   xmlns:dc="http://purl.org/dc/elements/1.1/"
   xmlns:cc="http://creativecommons.org/ns#"
   xmlns:rdf="http://www.w3.org/1999/02/22-rdf-syntax-ns#"
   xmlns:svg="http://www.w3.org/2000/svg"
   xmlns="http://www.w3.org/2000/svg"
   xmlns:sodipodi="http://sodipodi.sourceforge.net/DTD/sodipodi-0.dtd"
   xmlns:inkscape="http://www.inkscape.org/namespaces/inkscape"
   width="256"
   height="256"
   viewBox="0 0 72.248892 72.248892"
   id="svg4295"
   version="1.1"
   inkscape:version="0.91 r13725"
   sodipodi:docname="dockwidgets_bottom.svg">
  <metadata
     id="metadata4325">
    <rdf:RDF>
      <cc:Work
         rdf:about="">
        <dc:format>image/svg+xml</dc:format>
        <dc:type
           rdf:resource="http://purl.org/dc/dcmitype/StillImage" />
        <dc:title></dc:title>
      </cc:Work>
    </rdf:RDF>
  </metadata>
  <defs
     id="defs4323" />
  <sodipodi:namedview
     pagecolor="#ffffff"
     bordercolor="#666666"
     borderopacity="1"
     objecttolerance="10"
     gridtolerance="10"
     guidetolerance="10"
     inkscape:pageopacity="0"
     inkscape:pageshadow="2"
     inkscape:window-width="1920"
     inkscape:window-height="1176"
     id="namedview4321"
     showgrid="true"
     units="px"
     inkscape:snap-grids="true"
     inkscape:zoom="2.6867386"
     inkscape:cx="128"
     inkscape:cy="128"
     inkscape:window-x="-4"
     inkscape:window-y="-4"
     inkscape:window-maximized="1"
     inkscape:current-layer="svg4295"
     showguides="false">
    <inkscape:grid
       type="xygrid"
       id="grid4867" />
  </sodipodi:namedview>
  <path
     style="fill:#00ff00;fill-opacity:1;fill-rule:evenodd;stroke:#130000;stroke-width:0;stroke-linecap:round;stroke-miterlimit:4;stroke-dasharray:none;stroke-opacity:1"
     d="m 11.880595,43.556149 c 0,0.545887 0.585733,5.45591 0.658968,5.523933 0.05852,0.05435 6.145537,0.691878 8.374703,0.877126 5.85569,0.486619 9.467489,0.634506 15.493797,0.634404 6.187638,-1.05e-4 10.162157,-0.175119 15.546317,-0.684564 1.511971,-0.143061 6.803785,-0.77643 6.844118,-0.819161 0.009,-0.0095 0.09196,-1.033603 0.184389,-2.275733 0.09242,-1.242129 0.195188,-2.55385 0.228363,-2.914934 l 0.06032,-0.656517 -23.695487,0 -23.695485,0 0,0.315446 z"
     id="path4231"
     inkscape:connector-curvature="0" />
  <path
     style="fill:none;stroke:#000000;stroke-width:2.25777793;stroke-miterlimit:4;stroke-dasharray:none"
     inkscape:connector-curvature="0"
     id="path4313"
     d="m 58.994844,49.256616 c -15.701065,2.269321 -31.227988,1.926522 -46.64933,0 -1.566417,-10.944846 -1.522453,-21.761172 0,-32.425948 15.414997,-2.291262 30.954301,-2.469298 46.64933,0 1.339928,10.808649 0.880417,21.617299 0,32.425948 z"
     sodipodi:nodetypes="ccccc" />
  <path
     style="fill:#000000;fill-opacity:1;fill-rule:evenodd;stroke:#000000;stroke-width:0.28222215px;stroke-linecap:butt;stroke-linejoin:miter;stroke-opacity:1"
     d="m 41.395942,52.493337 -9.329011,0 0,4.233333 -13.060613,0 0,1.411111 33.584435,0 0,-1.411111 -11.194811,0 z"
     id="path4233"
     inkscape:connector-curvature="0" />
</svg>
