<?xml version="1.0" encoding="UTF-8" standalone="no"?>
<svg
   xmlns:dc="http://purl.org/dc/elements/1.1/"
   xmlns:cc="http://creativecommons.org/ns#"
   xmlns:rdf="http://www.w3.org/1999/02/22-rdf-syntax-ns#"
   xmlns:svg="http://www.w3.org/2000/svg"
   xmlns="http://www.w3.org/2000/svg"
   xmlns:sodipodi="http://sodipodi.sourceforge.net/DTD/sodipodi-0.dtd"
   xmlns:inkscape="http://www.inkscape.org/namespaces/inkscape"
   width="256"
   height="256"
   viewBox="0 0 72.248892 72.248892"
   id="svg4295"
   version="1.1"
   inkscape:version="0.91 r13725"
   sodipodi:docname="rotate.svg">
  <metadata
     id="metadata4325">
    <rdf:RDF>
      <cc:Work
         rdf:about="">
        <dc:format>image/svg+xml</dc:format>
        <dc:type
           rdf:resource="http://purl.org/dc/dcmitype/StillImage" />
        <dc:title />
      </cc:Work>
    </rdf:RDF>
  </metadata>
  <defs
     id="defs4323" />
  <sodipodi:namedview
     pagecolor="#ffffff"
     bordercolor="#666666"
     borderopacity="1"
     objecttolerance="10"
     gridtolerance="10"
     guidetolerance="10"
     inkscape:pageopacity="0"
     inkscape:pageshadow="2"
     inkscape:window-width="1920"
     inkscape:window-height="1176"
     id="namedview4321"
     showgrid="true"
     units="px"
     inkscape:snap-grids="false"
     inkscape:zoom="2.3321828"
     inkscape:cx="178.86654"
     inkscape:cy="140.6938"
     inkscape:window-x="-4"
     inkscape:window-y="-4"
     inkscape:window-maximized="1"
     inkscape:current-layer="svg4295">
    <inkscape:grid
       type="xygrid"
       id="grid4867" />
  </sodipodi:namedview>
  <path
     style="fill:none;stroke:#000000;stroke-width:1.69333345;stroke-miterlimit:4;stroke-dasharray:none"
     inkscape:connector-curvature="0"
     id="path4311"
     d="m 25.526742,64.891798 36.980799,0 0,-25.602091 -36.980799,0 0,25.602091 z" />
  <path
     style="fill:none;stroke:#000000;stroke-width:1.69333345;stroke-miterlimit:4;stroke-dasharray:none"
     inkscape:connector-curvature="0"
     id="path4313"
     d="m 34.060773,47.823737 0,-36.980798 -25.6020914,0 0,36.980798 25.6020914,0 z" />
  <circle
     id="path4909"
     style="fill:#000000;stroke:none;stroke-width:2.82222241;stroke-miterlimit:4;stroke-dasharray:none"
     cx="21.151566"
     cy="52.007072"
     r="1.5" />
  <path
     style="fill:none;fill-opacity:1;fill-rule:evenodd;stroke:#000000;stroke-width:0.02822222;stroke-linecap:butt;stroke-linejoin:miter;stroke-miterlimit:4;stroke-dasharray:none;stroke-opacity:1"
     d="m -7.4528891,41.150746 4.979425,0"
     id="path4899-9"
     inkscape:connector-curvature="0" />
  <path
     style="fill:#00ff00;fill-opacity:1;fill-rule:evenodd;stroke:#130000;stroke-width:1.12888896;stroke-linecap:round;stroke-miterlimit:4;stroke-dasharray:none;stroke-opacity:1"
     d="m 49.236629,51.358366 c -0.0024,-2.182368 -0.566842,-5.499227 -1.333199,-7.834814 -1.06069,-3.23261 -2.657471,-6.170031 -4.850306,-8.922568 -0.807542,-1.01366 -3.090519,-3.284024 -4.154189,-4.131235 -4.617701,-3.677997 -9.940277,-5.723651 -15.816003,-6.078651 -0.678346,-0.04098 -1.322516,-0.07483 -1.431484,-0.07522 l -0.198126,-7.06e-4 -0.01953,1.593843 -0.01953,1.593842 -3.33485,-2.602137 c -1.834168,-1.431176 -3.344433,-2.630886 -3.356145,-2.666023 -0.01631,-0.04892 4.81474,-4.410667 6.523564,-5.889852 l 0.281537,-0.243702 -0.02077,1.676635 -0.02077,1.676635 0.748896,-6.1e-5 c 1.110096,-9.4e-5 3.2168,0.198997 4.650791,0.439509 8.234161,1.38105 15.652515,5.884596 20.681792,12.555535 3.453489,4.580778 5.66773,10.06227 6.341435,15.698607 0.101642,0.850358 0.258592,3.047938 0.260372,3.645662 l 7.25e-4,0.235785 -2.466716,0 -2.466716,0 -7.34e-4,-0.67109 -2.5e-5,0 z"
     id="path4178"
     inkscape:connector-curvature="0" />
</svg>
